<svg width="226" height="277" viewBox="0 0 226 277" fill="none" xmlns="http://www.w3.org/2000/svg">
<path d="M134.558 46.5461C155.057 115.156 128.758 118.846 89.8593 79.4797C87.2371 76.8259 82.6772 77.7231 81.4938 81.2612C52.3259 168.47 97.5417 204.307 155.437 116.428C199.956 48.8551 200.343 141.262 143.91 193.32C127.826 208.158 131.954 258.08 117.102 262.517C96.0235 268.815 50.3294 215.437 38.2022 174.849C0.925859 50.0883 113.081 -25.3335 134.558 46.5461Z" fill="#4A80F5"/>
<path d="M38.2022 174.849C0.925865 50.0884 113.081 -25.3335 134.558 46.5461C155.057 115.156 128.758 118.846 89.8593 79.4797C87.2371 76.8259 82.6772 77.7231 81.4938 81.2612C52.3259 168.47 97.5417 204.307 155.437 116.428C199.956 48.8551 200.343 141.262 143.91 193.32M38.2022 174.849L143.91 193.32M38.2022 174.849C50.3294 215.437 96.0235 268.815 117.102 262.517M38.2022 174.849L117.102 262.517M143.91 193.32C127.826 208.158 131.954 258.08 117.102 262.517M143.91 193.32L110.547 214.379L117.102 262.517" stroke="#4A80F5"/>
<path d="M107.146 138.266C92.2734 151.041 69.4229 148.831 56.1083 133.329C42.7936 117.828 44.0568 94.9058 58.9297 82.1309C73.8025 69.3561 96.653 71.5663 109.968 87.0676C123.282 102.569 122.019 125.491 107.146 138.266Z" fill="#F18D00"/>
</svg>
